<?xml version="1.0" standalone="no"?>
<!DOCTYPE svg PUBLIC "-//W3C//DTD SVG 20010904//EN"
 "http://www.w3.org/TR/2001/REC-SVG-20010904/DTD/svg10.dtd">
<svg version="1.0" xmlns="http://www.w3.org/2000/svg"
 width="225.000000pt" height="225.000000pt" viewBox="0 0 225.000000 225.000000"
 preserveAspectRatio="xMidYMid meet">

<g transform="translate(0.000000,225.000000) scale(0.100000,-0.100000)"
fill="#000000" stroke="none">
<path d="M980 2104 c-369 -45 -670 -279 -764 -593 -15 -50 -14 -53 2 -46 108
45 207 56 299 31 31 -8 55 -10 59 -5 3 5 26 9 52 9 l47 0 33 65 c60 115 190
217 331 259 85 25 223 21 310 -8 75 -25 149 -65 171 -90 11 -14 9 -15 -16 -10
-16 3 -73 1 -127 -5 -144 -15 -260 -74 -326 -167 l-32 -44 208 -2 c358 -5 653
1 653 14 0 6 -10 25 -23 42 -13 17 -31 54 -41 81 -52 142 -233 315 -414 397
-121 55 -304 86 -422 72z"/>
<path d="M330 1466 c-114 -24 -190 -93 -190 -172 0 -92 81 -148 253 -175 78
-12 101 -24 76 -40 -36 -23 -142 -2 -160 32 -8 16 -21 19 -90 19 l-80 0 3 -82
3 -83 58 -3 c32 -2 65 2 72 8 9 7 29 6 71 -5 163 -42 345 7 389 105 53 118
-40 235 -198 247 -73 5 -127 20 -127 35 0 16 124 3 151 -16 16 -11 45 -16 89
-16 l65 0 -3 70 -4 70 -59 0 c-32 0 -59 -4 -59 -9 0 -4 -35 0 -77 10 -89 21
-107 22 -183 5z"/>
<path d="M750 1350 l0 -110 100 0 100 0 0 44 c0 25 5 48 10 51 7 4 10 -36 8
-122 -3 -124 -4 -128 -25 -131 -21 -3 -23 -9 -23 -63 l0 -59 170 0 170 0 0 60
c0 52 -2 60 -19 60 -10 0 -22 7 -25 16 -11 27 -7 246 4 239 6 -3 10 -26 10
-51 l0 -44 100 0 100 0 0 110 0 110 -340 0 -340 0 0 -110z"/>
<path d="M1470 1407 c0 -45 3 -54 23 -62 20 -9 22 -17 25 -115 3 -128 -1 -150
-31 -150 -21 0 -22 -4 -19 -60 l4 -60 174 0 174 0 0 59 c0 58 -1 60 -27 63
-25 3 -28 7 -31 46 -4 47 13 57 28 17 8 -22 16 -25 57 -25 l48 0 -3 95 -3 95
-44 0 c-34 0 -47 -5 -55 -20 -17 -32 -31 -23 -28 18 l3 37 64 -1 c54 0 67 -4
82 -23 11 -13 19 -36 19 -52 l0 -29 95 0 95 0 0 110 0 110 -325 0 -325 0 0
-53z"/>
<path d="M1878 1083 c-26 -4 -27 -7 -30 -76 l-3 -72 -100 -3 -100 -3 -35 -62
c-19 -34 -70 -97 -113 -139 -64 -65 -94 -86 -180 -127 -110 -53 -181 -73 -322
-92 -90 -12 -223 -7 -300 11 -22 5 -41 7 -44 5 -2 -3 10 -8 27 -11 17 -4 30
-11 29 -17 -1 -6 9 -17 23 -25 l25 -14 -25 6 c-23 5 -24 4 -6 -9 18 -13 18
-14 -2 -12 -11 0 -18 5 -16 9 3 4 0 8 -6 8 -6 0 -9 4 -6 8 2 4 -3 8 -13 9 -10
1 -18 -4 -18 -12 0 -7 7 -11 15 -7 9 3 13 1 9 -5 -19 -30 223 -83 380 -83 143
0 242 19 347 68 211 99 369 252 450 436 41 93 70 219 49 215 -5 -1 -20 -4 -35
-6z"/>
<path d="M730 1005 c-53 -55 -119 -78 -238 -83 -60 -3 -122 1 -148 7 -26 7
-49 10 -52 7 -18 -19 128 -166 219 -219 35 -21 100 -49 144 -64 70 -23 96 -26
205 -26 142 0 245 25 368 87 119 61 119 59 -5 85 -142 30 -309 84 -355 116
-21 14 -53 48 -71 75 l-34 50 -33 -35z"/>
</g>
</svg>
